# xmcd CD database file generated by OrangeCD 6.3
#
# Track frame offsets:
#	183
#	12035
#	25995
#	41225
#	53220
#	68038
#	82673
#	97510
#	110665
#	125083
#	135685
#	148263
#	162103
#	176800
#
# Disc length: 2545 seconds
#
# Revision: 2
# Processed by: cddbd v1.5.2PL0 Copyright (c) Steve Scherf et al.
# Submitted via: OrangeCD 6.3
#
DISCID=b909ef0e
DTITLE=Blind Willie McTell - Statesboro Blues
DYEAR=1995
DGENRE=Acoustic Blues
TTITLE0=Statesboro Blues
TTITLE1=Mama, 'Tain't Long Fo' Day
TTITLE2=Drive Away Blues
TTITLE3=Loving Talking Blues
TTITLE4=Lonesome Day Blues
TTITLE5=Mama, Let Me Scoop For You
TTITLE6=Love Changing Blues
TTITLE7=Dark Night Blues
TTITLE8=Stole Rider Blues
TTITLE9=Mr. McTell Got The Blues
TTITLE10=Three Women Blues
TTITLE11=Rollin' Mama Blues
TTITLE12=Writin' Paper Blues
TTITLE13=Searching The Desert For The Blues
EXTD=
EXTT0=
EXTT1=
EXTT2=
EXTT3=
EXTT4=
EXTT5=
EXTT6=
EXTT7=
EXTT8=
EXTT9=
EXTT10=
EXTT11=
EXTT12=
EXTT13=
PLAYORDER=
